<svg width="357" height="289" viewBox="0 0 357 289" fill="none" xmlns="http://www.w3.org/2000/svg">
<g filter="url(#filter0_d_828_27768)">
<path d="M113.768 28.1079C115.2 22.6571 120.78 19.3993 126.231 20.8315L315.313 70.5127C320.763 71.9449 324.021 77.5248 322.589 82.9756L281.421 239.656C279.989 245.107 274.409 248.364 268.958 246.932L79.8768 197.251C74.4259 195.819 71.1682 190.239 72.6004 184.788L113.768 28.1079Z" fill="white"/>
</g>
<rect x="218.437" y="58.9098" width="93.1171" height="155.62" rx="4.46452" transform="rotate(14.7217 218.437 58.9098)" fill="white" stroke="#F5F5F5" stroke-width="1.27558"/>
<rect x="124.832" y="34.3496" width="89.2904" height="12.7558" rx="6.37789" transform="rotate(14.7217 124.832 34.3496)" fill="#DBDBDB"/>
<g opacity="0.7">
<path d="M174.787 102.109C168.108 100.354 161.246 104.36 159.491 111.039C158.68 114.126 159.07 117.37 160.585 120.172C162.224 123.211 165.08 125.457 168.422 126.335C171.763 127.213 175.354 126.661 178.276 124.821C180.973 123.125 182.907 120.491 183.718 117.405C185.472 110.726 181.466 103.863 174.787 102.109Z" fill="#F2EFFB"/>
<path d="M174.159 105.351C176.82 106.05 178.411 108.775 177.712 111.436C177.012 114.097 174.288 115.688 171.627 114.989C168.965 114.29 167.375 111.565 168.074 108.904C168.773 106.243 171.498 104.652 174.159 105.351ZM163.738 117.118C165.182 116.277 166.946 115.984 168.689 116.442L173.47 117.699C175.966 118.354 177.745 120.37 178.217 122.743C178.13 122.804 178.04 122.862 177.952 122.917C175.354 124.553 172.16 125.045 169.189 124.264C166.219 123.484 163.679 121.486 162.221 118.784C162.171 118.692 162.122 118.598 162.075 118.502C162.549 117.951 163.111 117.483 163.738 117.118Z" fill="#653AD8"/>
</g>
<g opacity="0.7">
<path d="M135.074 91.673C128.395 89.9181 121.533 93.9246 119.778 100.604C118.967 103.69 119.357 106.934 120.872 109.737C122.512 112.776 125.367 115.021 128.709 115.9C132.05 116.778 135.641 116.226 138.563 114.385C141.26 112.689 143.194 110.055 144.005 106.969C145.76 100.29 141.753 93.4279 135.074 91.673Z" fill="#EDFAF3"/>
<path d="M134.444 94.9156C137.105 95.6148 138.696 98.3392 137.997 101C137.297 103.662 134.573 105.253 131.912 104.553C129.25 103.854 127.66 101.13 128.359 98.4682C129.058 95.8071 131.783 94.2163 134.444 94.9156ZM124.023 106.682C125.467 105.841 127.231 105.549 128.975 106.007L133.755 107.263C136.251 107.919 138.03 109.934 138.502 112.308C138.415 112.368 138.325 112.426 138.237 112.482C135.639 114.118 132.445 114.609 129.475 113.829C126.504 113.048 123.964 111.05 122.506 108.349C122.456 108.256 122.407 108.162 122.36 108.066C122.834 107.515 123.396 107.048 124.023 106.682Z" fill="#1FC16B"/>
</g>
<path d="M157.655 89.4424C148.054 86.9198 138.19 92.6791 135.667 102.28C134.501 106.717 135.061 111.38 137.239 115.409C139.596 119.778 143.701 123.006 148.505 124.268C153.308 125.53 158.47 124.737 162.67 122.091C166.547 119.653 169.327 115.867 170.493 111.43C173.015 101.83 167.256 91.965 157.655 89.4424Z" fill="#FFF9E6"/>
<path d="M156.348 95.6305C160.174 96.6357 162.46 100.552 161.455 104.378C160.45 108.203 156.534 110.49 152.708 109.485C148.882 108.48 146.596 104.563 147.601 100.737C148.606 96.9121 152.522 94.6253 156.348 95.6305ZM141.369 112.545C143.444 111.336 145.979 110.915 148.486 111.574L155.358 113.38C158.946 114.322 161.503 117.22 162.182 120.632C162.056 120.719 161.928 120.802 161.8 120.882C158.066 123.234 153.474 123.94 149.205 122.818C144.935 121.696 141.284 118.824 139.188 114.94C139.116 114.808 139.045 114.673 138.978 114.535C139.658 113.743 140.466 113.071 141.369 112.545Z" fill="#FF9D05"/>
<rect x="119.354" y="132.447" width="50.0226" height="5.10231" rx="2.55115" transform="rotate(14.7217 119.354 132.447)" fill="#DBDBDB"/>
<rect x="222.289" y="130.367" width="49.7475" height="5.10231" rx="2.55115" transform="rotate(14.7217 222.289 130.367)" fill="#DBDBDB"/>
<rect x="139.453" y="55.957" width="50.0226" height="5.10231" rx="2.55115" transform="rotate(14.7217 139.453 55.957)" fill="#DBDBDB"/>
<rect x="127.324" y="146.41" width="27.5124" height="5.10231" rx="2.55115" transform="rotate(14.7217 127.324 146.41)" fill="#F5F5F5"/>
<rect x="230.258" y="144.33" width="28.0627" height="5.10231" rx="2.55115" transform="rotate(14.7217 230.258 144.33)" fill="#DBDBDB"/>
<rect x="230.453" y="155.703" width="21.6848" height="5.10231" rx="2.55115" transform="rotate(14.7217 230.453 155.703)" fill="#F5F5F5"/>
<rect x="191.543" y="186.367" width="81.6369" height="20.4092" rx="4.46452" transform="rotate(14.7217 191.543 186.367)" fill="white"/>
<rect x="191.543" y="186.367" width="81.6369" height="20.4092" rx="4.46452" transform="rotate(14.7217 191.543 186.367)" stroke="#F5F5F5" stroke-width="1.27558"/>
<rect x="196.383" y="195.551" width="67.6056" height="5.10231" rx="2.55115" transform="rotate(14.7217 196.383 195.551)" fill="#0A0D10" fill-opacity="0.1"/>
<rect x="196.383" y="195.551" width="31.8894" height="5.10231" rx="2.55115" transform="rotate(14.7217 196.383 195.551)" fill="#0A0D10"/>
<g filter="url(#filter1_d_828_27768)">
<rect x="26.7148" y="121.137" width="103.322" height="40.8185" rx="16" transform="rotate(14.7217 26.7148 121.137)" fill="#0A0D10" shape-rendering="crispEdges"/>
<path d="M40.8959 152.685L44.0726 140.595L48.3215 141.711C48.9663 141.88 49.5062 142.192 49.9411 142.644C50.3818 143.099 50.6837 143.636 50.8466 144.258C51.0168 144.875 51.0149 145.515 50.841 146.177C50.6882 146.758 50.4339 147.258 50.078 147.675C49.7222 148.092 49.3004 148.409 48.8127 148.626C48.3322 148.838 47.8228 148.938 47.2844 148.926L48.8841 154.784L47.2087 154.344L45.6291 148.62L43.6514 148.1L42.3467 153.066L40.8959 152.685ZM44.0326 146.65L46.6839 147.346C47.0754 147.449 47.4602 147.449 47.8382 147.345C48.2178 147.235 48.5457 147.041 48.822 146.763C49.1054 146.481 49.3016 146.132 49.4106 145.718C49.521 145.297 49.5214 144.898 49.4119 144.518C49.3097 144.134 49.1194 143.804 48.8412 143.528C48.5644 143.246 48.2303 143.053 47.8388 142.951L45.1876 142.254L44.0326 146.65ZM54.0485 156.381C53.254 156.172 52.5823 155.777 52.0333 155.196C51.4902 154.616 51.1128 153.932 50.9014 153.144C50.6972 152.352 50.7047 151.539 50.9241 150.704C51.0905 150.07 51.3578 149.51 51.726 149.022C52.0958 148.528 52.5309 148.126 53.0313 147.814C53.539 147.498 54.0858 147.291 54.6717 147.192C55.2576 147.094 55.8471 147.123 56.4401 147.279C57.0907 147.449 57.6518 147.738 58.1234 148.145C58.6022 148.548 58.9733 149.034 59.2365 149.601C59.5054 150.17 59.654 150.788 59.6821 151.454C59.716 152.121 59.6148 152.8 59.3784 153.488L52.3315 151.637C52.272 152.144 52.3182 152.624 52.4702 153.076C52.6237 153.523 52.8667 153.91 53.1992 154.237C53.5374 154.566 53.9476 154.797 54.4297 154.93C54.9478 155.066 55.4519 155.057 55.9417 154.903C56.4331 154.742 56.8696 154.463 57.2512 154.065L58.6372 154.798C58.0906 155.473 57.4046 155.964 56.5794 156.27C55.7557 156.571 54.9121 156.608 54.0485 156.381ZM52.5878 150.485L58.2184 151.965C58.2994 151.469 58.2597 150.988 58.0993 150.521C57.9403 150.048 57.6882 149.638 57.343 149.288C56.9978 148.939 56.5834 148.701 56.0997 148.574C55.6161 148.447 55.1418 148.448 54.6768 148.579C54.2117 148.709 53.7939 148.941 53.4231 149.274C53.0597 149.603 52.7812 150.007 52.5878 150.485ZM64.7455 147.439L64.1851 149.572L66.7154 150.237L66.3342 151.688L63.8038 151.023L61.916 158.208L60.4651 157.827L62.353 150.642L61.239 150.349L61.6202 148.898L62.7342 149.191L63.2947 147.058C63.4112 146.614 63.6228 146.242 63.9296 145.941C64.2437 145.636 64.6101 145.425 65.0288 145.307C65.4547 145.185 65.8865 145.181 66.324 145.296C66.6464 145.381 66.9428 145.53 67.2131 145.742C67.485 145.949 67.7057 146.21 67.8751 146.526L66.5688 147.281C66.517 147.15 66.4324 147.039 66.3151 146.947C66.2051 146.85 66.081 146.784 65.9428 146.747C65.6837 146.679 65.435 146.712 65.1966 146.847C64.9639 146.982 64.8136 147.18 64.7455 147.439ZM69.3806 160.409C68.5861 160.201 67.9144 159.806 67.3655 159.224C66.8223 158.645 66.445 157.961 66.2335 157.173C66.0293 156.381 66.0368 155.567 66.2562 154.732C66.4226 154.099 66.6899 153.538 67.0582 153.05C67.4279 152.557 67.863 152.154 68.3634 151.842C68.8711 151.526 69.4179 151.319 70.0038 151.221C70.5898 151.123 71.1792 151.151 71.7722 151.307C72.4228 151.478 72.9839 151.767 73.4555 152.174C73.9343 152.577 74.3054 153.062 74.5686 153.63C74.8376 154.199 74.9861 154.817 75.0142 155.482C75.0481 156.15 74.9469 156.828 74.7105 157.517L67.6636 155.665C67.6041 156.173 67.6503 156.653 67.8023 157.105C67.9558 157.551 68.1988 157.938 68.5313 158.266C68.8695 158.595 69.2797 158.826 69.7618 158.958C70.28 159.095 70.784 159.085 71.2738 158.931C71.7652 158.771 72.2017 158.492 72.5833 158.093L73.9693 158.827C73.4227 159.502 72.7368 159.992 71.9115 160.299C71.0878 160.599 70.2442 160.636 69.3806 160.409ZM67.9199 154.514L73.5506 155.993C73.6316 155.498 73.5918 155.016 73.4314 154.55C73.2724 154.077 73.0204 153.666 72.6751 153.317C72.3299 152.968 71.9155 152.73 71.4319 152.602C70.9482 152.475 70.4739 152.477 70.0089 152.607C69.5439 152.737 69.126 152.969 68.7553 153.302C68.3918 153.632 68.1134 154.035 67.9199 154.514ZM75.1697 161.69L77.4387 153.054L78.8896 153.436L78.6059 154.515C79.017 154.192 79.4867 153.974 80.015 153.861C80.5449 153.741 81.0833 153.754 81.6303 153.897C81.9642 153.985 82.2752 154.113 82.5634 154.281L81.595 155.577C81.3786 155.441 81.1581 155.343 80.9336 155.284C80.5018 155.17 80.0766 155.172 79.6579 155.29C79.2465 155.404 78.8874 155.611 78.5806 155.912C78.2738 156.213 78.0629 156.582 77.9479 157.02L76.6205 162.072L75.1697 161.69ZM81.3599 163.317L83.6289 154.681L85.0798 155.062L84.7961 156.142C85.2072 155.819 85.6769 155.601 86.2052 155.487C86.7351 155.368 87.2735 155.38 87.8204 155.524C88.1544 155.611 88.4654 155.739 88.7536 155.907L87.7852 157.204C87.5688 157.067 87.3483 156.969 87.1238 156.91C86.692 156.797 86.2668 156.799 85.8481 156.917C85.4367 157.03 85.0776 157.237 84.7708 157.538C84.464 157.839 84.2531 158.208 84.1381 158.646L82.8107 163.698L81.3599 163.317ZM96.2901 158.008L97.741 158.389L95.4719 167.025L94.0211 166.644L94.3441 165.168C93.9419 165.598 93.461 165.906 92.9015 166.091C92.3477 166.278 91.7426 166.285 91.0863 166.112C90.453 165.946 89.891 165.672 89.4003 165.291C88.9112 164.904 88.5088 164.444 88.1932 163.912C87.8848 163.376 87.6852 162.8 87.5944 162.185C87.5036 161.571 87.5421 160.944 87.7101 160.305C87.8719 159.689 88.1398 159.137 88.5138 158.651C88.8878 158.165 89.3329 157.771 89.8491 157.469C90.3725 157.164 90.9351 156.967 91.5368 156.879C92.14 156.785 92.7525 156.82 93.3743 156.983C94.0536 157.161 94.6072 157.479 95.0348 157.936C95.464 158.388 95.7704 158.908 95.9539 159.498L96.2901 158.008ZM91.4303 164.698C92.0002 164.848 92.5288 164.839 93.0159 164.672C93.5103 164.5 93.9326 164.205 94.2827 163.786C94.6385 163.368 94.8921 162.872 95.0433 162.296C95.1976 161.709 95.2217 161.149 95.1154 160.616C95.0107 160.078 94.7845 159.615 94.4368 159.229C94.0964 158.838 93.6441 158.568 93.0799 158.42C92.5099 158.27 91.9547 158.275 91.4142 158.434C90.8738 158.594 90.4026 158.876 90.0007 159.282C89.606 159.683 89.3323 160.174 89.1795 160.755C89.0268 161.337 89.0286 161.904 89.1852 162.456C89.3433 163.002 89.6184 163.477 90.0106 163.882C90.4043 164.281 90.8776 164.553 91.4303 164.698ZM97.2992 167.505L100.703 154.551L102.154 154.932L98.75 167.886L97.2992 167.505Z" fill="white"/>
<path d="M122.584 182.034C124.739 181.893 125.756 179.306 124.272 177.736L114.004 166.87C113.402 166.233 112.351 166.379 111.946 167.157L104.594 181.265C104.135 182.146 104.816 183.192 105.809 183.127L122.584 182.034Z" fill="#0A0D10"/>
</g>
<g clip-path="url(#clip0_828_27768)">
<path fill-rule="evenodd" clip-rule="evenodd" d="M251.657 115.636C244.58 113.776 240.334 106.504 242.194 99.4275C244.053 92.3505 251.325 88.1049 258.402 89.9644C265.479 91.8239 269.725 99.0957 267.865 106.173C266.006 113.25 258.734 117.495 251.657 115.636Z" fill="#FFC107"/>
<path fill-rule="evenodd" clip-rule="evenodd" d="M258.914 88.0214C258.59 87.9363 258.379 87.609 258.47 87.2621L259.455 83.5154C259.54 83.1917 259.89 82.987 260.214 83.0721C260.561 83.1633 260.742 83.5076 260.657 83.8314L259.673 87.5781C259.582 87.925 259.26 88.1125 258.914 88.0214ZM266.074 92.1033C265.959 92.0729 265.872 92.0254 265.792 91.9549C265.534 91.714 265.538 91.3197 265.773 91.0847L268.526 88.322C268.767 88.0639 269.162 88.0686 269.397 88.3034C269.632 88.5382 269.65 88.9386 269.386 89.1907L266.662 91.9363C266.492 92.1141 266.282 92.158 266.074 92.1033ZM270.211 99.223C270.003 99.1683 269.825 98.998 269.782 98.7886C269.699 98.4455 269.882 98.1229 270.209 98.0108L273.962 96.9943C274.282 96.9053 274.627 97.095 274.71 97.4382C274.799 97.7583 274.61 98.104 274.29 98.193L270.536 99.2095C270.426 99.2546 270.327 99.2534 270.211 99.223ZM274.022 108.433L270.252 107.442C269.928 107.357 269.718 107.03 269.809 106.683C269.894 106.359 270.244 106.154 270.568 106.239L274.338 107.23C274.662 107.315 274.866 107.666 274.781 107.989C274.69 108.336 274.346 108.518 274.022 108.433ZM268.939 117.333C268.823 117.302 268.737 117.255 268.663 117.161L265.894 114.431C265.659 114.196 265.664 113.802 265.899 113.567C266.139 113.309 266.534 113.314 266.769 113.548L269.531 116.302C269.766 116.537 269.762 116.931 269.527 117.166C269.386 117.327 269.147 117.388 268.939 117.333ZM260.09 122.499C259.882 122.445 259.704 122.274 259.66 122.065L258.621 118.306C258.532 117.986 258.722 117.64 259.065 117.557C259.385 117.468 259.731 117.658 259.82 117.978L260.836 121.731C260.948 122.057 260.735 122.397 260.415 122.486C260.305 122.531 260.183 122.524 260.09 122.499ZM249.841 122.551C249.517 122.466 249.313 122.115 249.398 121.791L250.388 118.022C250.473 117.698 250.824 117.493 251.148 117.578C251.494 117.669 251.676 118.014 251.591 118.337L250.6 122.107C250.515 122.431 250.188 122.642 249.841 122.551ZM240.964 117.474C240.848 117.443 240.762 117.396 240.688 117.302C240.429 117.061 240.434 116.667 240.669 116.432L243.399 113.663C243.657 113.434 244.034 113.41 244.286 113.674C244.521 113.909 244.517 114.303 244.282 114.538L241.552 117.307C241.387 117.461 241.172 117.528 240.964 117.474ZM235.798 108.625C235.589 108.57 235.412 108.4 235.345 108.184C235.256 107.864 235.445 107.519 235.789 107.436L239.548 106.396C239.868 106.307 240.214 106.497 240.297 106.84C240.386 107.16 240.196 107.506 239.876 107.595L236.123 108.611C236.012 108.656 235.89 108.649 235.798 108.625ZM239.493 99.3601L235.746 98.3756C235.422 98.2906 235.212 97.9632 235.303 97.6163C235.388 97.2926 235.738 97.0879 236.062 97.173L239.809 98.1574C240.156 98.2486 240.337 98.593 240.252 98.9168C240.161 99.2637 239.84 99.4512 239.493 99.3601ZM243.592 92.2287C243.476 92.1983 243.39 92.1509 243.315 92.0572L240.547 89.327C240.289 89.0862 240.293 88.6918 240.528 88.4568C240.769 88.1987 241.163 88.2034 241.421 88.4443L244.19 91.1744C244.419 91.4324 244.42 91.8036 244.18 92.0617C244.015 92.2164 243.777 92.2773 243.592 92.2287ZM250.694 88.0622C250.486 88.0076 250.302 87.8604 250.235 87.645L249.219 83.8918C249.136 83.5486 249.326 83.2028 249.669 83.12C249.989 83.031 250.335 83.2207 250.418 83.5639L251.434 87.3171C251.523 87.6372 251.333 87.9829 251.013 88.0719C250.909 88.0938 250.787 88.0866 250.694 88.0622Z" fill="#FF9D05"/>
<path fill-rule="evenodd" clip-rule="evenodd" d="M257.464 111.226C257.395 111.208 257.326 111.19 257.268 111.125L253.548 108.442L249.012 108.956C248.803 109 248.583 108.893 248.452 108.735C248.32 108.577 248.277 108.367 248.354 108.165L249.769 103.815L247.847 99.6505C247.774 99.4583 247.783 99.238 247.907 99.048C248.025 98.8813 248.206 98.7558 248.426 98.7643L252.996 98.7783L256.386 95.6637C256.521 95.5261 256.754 95.4883 256.939 95.5369C257.147 95.5916 257.308 95.7327 257.381 95.925L258.801 100.304L262.788 102.538C262.961 102.633 263.081 102.837 263.101 103.04C263.116 103.267 263.015 103.463 262.834 103.588L259.136 106.276L258.23 110.76C258.175 110.968 258.034 111.129 257.842 111.202C257.725 111.27 257.58 111.257 257.464 111.226Z" fill="white"/>
</g>
<defs>
<filter id="filter0_d_828_27768" x="44.201" y="0.0849075" width="311.89" height="288.003" filterUnits="userSpaceOnUse" color-interpolation-filters="sRGB">
<feFlood flood-opacity="0" result="BackgroundImageFix"/>
<feColorMatrix in="SourceAlpha" type="matrix" values="0 0 0 0 0 0 0 0 0 0 0 0 0 0 0 0 0 0 127 0" result="hardAlpha"/>
<feOffset dx="2.55115" dy="10.2046"/>
<feGaussianBlur stdDeviation="15.3069"/>
<feComposite in2="hardAlpha" operator="out"/>
<feColorMatrix type="matrix" values="0 0 0 0 0 0 0 0 0 0 0 0 0 0 0 0 0 0 0.06 0"/>
<feBlend mode="normal" in2="BackgroundImageFix" result="effect1_dropShadow_828_27768"/>
<feBlend mode="normal" in="SourceGraphic" in2="effect1_dropShadow_828_27768" result="shape"/>
</filter>
<filter id="filter1_d_828_27768" x="-2.79186" y="102.003" width="153.672" height="109.104" filterUnits="userSpaceOnUse" color-interpolation-filters="sRGB">
<feFlood flood-opacity="0" result="BackgroundImageFix"/>
<feColorMatrix in="SourceAlpha" type="matrix" values="0 0 0 0 0 0 0 0 0 0 0 0 0 0 0 0 0 0 127 0" result="hardAlpha"/>
<feOffset dx="2.55115" dy="2.55115"/>
<feGaussianBlur stdDeviation="10.8424"/>
<feComposite in2="hardAlpha" operator="out"/>
<feColorMatrix type="matrix" values="0 0 0 0 0 0 0 0 0 0 0 0 0 0 0 0 0 0 0.11 0"/>
<feBlend mode="normal" in2="BackgroundImageFix" result="effect1_dropShadow_828_27768"/>
<feBlend mode="normal" in="SourceGraphic" in2="effect1_dropShadow_828_27768" result="shape"/>
</filter>
<clipPath id="clip0_828_27768">
<rect width="40.8185" height="40.8185" fill="white" transform="translate(240.486 77.8887) rotate(14.7217)"/>
</clipPath>
</defs>
</svg>
