<svg width="274" height="285" viewBox="0 0 274 285" fill="none" xmlns="http://www.w3.org/2000/svg">
<g filter="url(#filter0_d_828_27692)">
<path d="M26.5415 68.4486C25.4151 64.1763 27.9653 59.7998 32.2376 58.6734L190.819 16.8633C195.091 15.7369 199.467 18.2872 200.594 22.5594L247.503 200.48C248.629 204.752 246.079 209.128 241.806 210.255L83.2255 252.065C78.9532 253.191 74.5767 250.641 73.4503 246.369L26.5415 68.4486Z" fill="white"/>
</g>
<g clip-path="url(#clip0_828_27692)">
<circle cx="46.6697" cy="74.1883" r="8" transform="rotate(-14.77 46.6697 74.1883)" fill="#E9F9F0"/>
<rect x="57.1426" y="63.0059" width="80" height="23" rx="2" transform="rotate(-14.77 57.1426 63.0059)" fill="#F5F5F5"/>
<rect x="60.9707" y="65.7637" width="41.5686" height="4" rx="2" transform="rotate(-14.77 60.9707 65.7637)" fill="#DBDBDB"/>
<rect x="62.5918" y="71.9102" width="35" height="4" rx="2" transform="rotate(-14.77 62.5918 71.9102)" fill="#DBDBDB"/>
<rect x="64.1211" y="77.7129" width="31.5686" height="4" rx="2" transform="rotate(-14.77 64.1211 77.7129)" fill="#EDEDED"/>
<path d="M55.5016 67.3696L59.2781 63.6233L60.6342 68.767L55.5016 67.3696Z" fill="#F5F5F5"/>
</g>
<g filter="url(#filter1_d_828_27692)">
<path d="M15.1705 102.368C14.0719 91.9301 21.6289 82.5932 32.0683 81.4944C40.4617 80.6109 48.0684 85.3178 51.341 92.5065L59.2592 96.3999C60.2883 96.9059 60.4371 98.3158 59.5355 99.0254L52.6015 104.482C49.5847 118.136 33.1432 124.074 22.1076 115.14C18.1652 111.948 15.7015 107.413 15.1705 102.368Z" fill="#653AD8"/>
</g>
<g clip-path="url(#clip1_828_27692)">
<path d="M36.2478 91.6212L32.9803 93.7076L32.1396 92.3909C31.7393 91.764 30.9037 91.5797 30.2768 91.98L26.9408 94.1102C26.3139 94.5105 26.1295 95.3461 26.5298 95.973L27.3705 97.2897L24.1031 99.376C23.2708 99.9075 23.026 101.017 23.5575 101.849C24.0403 102.606 24.3964 103.334 25.457 103.732C26.057 103.957 26.6992 103.98 27.3142 103.8L33.2864 102.051C33.8768 101.878 34.4057 101.541 34.8107 101.078L38.9104 96.3957C39.3325 95.9135 39.5812 95.3209 39.6295 94.6819C39.7153 93.5474 39.1973 92.9125 38.7211 92.1668C38.1897 91.3345 37.0801 91.0897 36.2478 91.6212ZM27.4928 95.3581C27.4634 95.312 27.4535 95.2561 27.4653 95.2026C27.4771 95.1492 27.5096 95.1027 27.5557 95.0732L30.8917 92.943C30.9378 92.9136 30.9937 92.9037 31.0472 92.9155C31.1006 92.9273 31.1472 92.9598 31.1767 93.0058L32.0174 94.3225L28.3335 96.6747L27.4928 95.3581Z" fill="white"/>
<path d="M39.7702 97.1482C35.3482 102.198 35.4389 102.185 34.7332 102.636C34.0325 103.083 34.1971 102.975 27.6357 104.897C26.9438 105.099 26.2273 105.116 25.5371 104.949L28.4878 109.57C29.0193 110.403 30.1289 110.647 30.9612 110.116L43.1058 102.361C43.9382 101.829 44.183 100.72 43.6515 99.8876L40.7008 95.2666C40.5618 95.9629 40.2451 96.6059 39.7702 97.1482Z" fill="white"/>
</g>
<g clip-path="url(#clip2_828_27692)">
<circle cx="57.8865" cy="116.733" r="8" transform="rotate(-14.77 57.8865 116.733)" fill="#E9F9F0"/>
<rect x="68.6875" y="105.611" width="79.2157" height="18" rx="2" transform="rotate(-14.77 68.6875 105.611)" fill="#F5F5F5"/>
<rect x="72.5781" y="108.207" width="41.5686" height="4" rx="2" transform="rotate(-14.77 72.5781 108.207)" fill="#DBDBDB"/>
<rect x="74.3613" y="114.975" width="31.5686" height="4" rx="2" transform="rotate(-14.77 74.3613 114.975)" fill="#EDEDED"/>
<path d="M66.7204 109.915L70.4968 106.168L71.853 111.312L66.7204 109.915Z" fill="#F5F5F5"/>
</g>
<g clip-path="url(#clip3_828_27692)">
<circle cx="77.2302" cy="190.097" r="8" transform="rotate(-14.77 77.2302 190.097)" fill="#E9F9F0"/>
<rect x="88.0312" y="178.975" width="49.2157" height="11" rx="2" transform="rotate(-14.77 88.0312 178.975)" fill="#F5F5F5"/>
<rect x="91.9219" y="181.57" width="31.5686" height="4" rx="2" transform="rotate(-14.77 91.9219 181.57)" fill="#DBDBDB"/>
<path d="M86.0641 183.278L89.8406 179.532L91.1967 184.675L86.0641 183.278Z" fill="#F5F5F5"/>
</g>
<g clip-path="url(#clip4_828_27692)">
<circle cx="204.867" cy="117.214" r="8" transform="rotate(-14.77 204.867 117.214)" fill="#E6EDFD"/>
<rect x="136.324" y="127.012" width="56.3836" height="18" rx="2" transform="rotate(-14.77 136.324 127.012)" fill="#F5F5F5"/>
<rect x="147.738" y="127.104" width="41.5686" height="4" rx="2" transform="rotate(-14.77 147.738 127.104)" fill="#DBDBDB"/>
<rect x="166.961" y="129.273" width="23.5354" height="4" rx="2" transform="rotate(-14.77 166.961 129.273)" fill="#EDEDED"/>
<path d="M194.09 115.565L188.957 114.168L190.313 119.311L194.09 115.565Z" fill="#F5F5F5"/>
</g>
<g clip-path="url(#clip5_828_27692)">
<circle cx="219.752" cy="173.669" r="8" transform="rotate(-14.77 219.752 173.669)" fill="#E6EDFD"/>
<rect x="150.992" y="183.523" width="57" height="24" rx="2" transform="rotate(-14.77 150.992 183.523)" fill="#F5F5F5"/>
<path d="M208.976 172.02L203.844 170.623L205.2 175.766L208.976 172.02Z" fill="#F5F5F5"/>
</g>
<g filter="url(#filter2_d_828_27692)">
<path d="M225.257 65.1846C218.327 57.3022 206.34 56.5301 198.456 63.4609C192.118 69.0334 190.423 77.8165 193.49 85.0952L190.986 93.5559C190.66 94.6556 191.596 95.7206 192.729 95.5387L201.441 94.1389C213.524 101.175 229.034 93.1111 229.946 78.9419C230.271 73.8801 228.606 68.9943 225.257 65.1846Z" fill="#1FC16B"/>
</g>
<g clip-path="url(#clip6_828_27692)">
<path d="M215.177 80.777C215.099 79.8288 214.684 78.9399 214.007 78.2715C213.33 77.6032 212.436 77.1997 211.487 77.1342L210.602 77.0773C209.652 77.0207 208.714 77.3063 207.957 77.8824C207.199 78.4585 206.674 79.2869 206.475 80.2173L205.86 83.1555C205.841 83.2505 205.843 83.3488 205.868 83.4426C205.893 83.5364 205.939 83.6231 206.003 83.6958C206.159 83.8729 207.125 84.7867 210.537 85.0062C213.949 85.2256 215.021 84.4462 215.201 84.2874C215.274 84.2234 215.331 84.1434 215.368 84.0536C215.404 83.9637 215.42 83.8666 215.412 83.7699L215.177 80.777ZM207.322 77.3256C206.47 78.0149 205.883 78.9772 205.66 80.0496L205.215 82.1588C202.747 81.9833 202.056 81.037 201.943 80.846C201.899 80.7764 201.869 80.6988 201.856 80.6176C201.843 80.5364 201.846 80.4534 201.865 80.3733L202.114 79.3539C202.244 78.8211 202.501 78.3275 202.862 77.915C203.223 77.5024 203.679 77.1831 204.19 76.9841C204.701 76.785 205.252 76.7121 205.798 76.7716C206.343 76.8311 206.866 77.0211 207.322 77.3256ZM219.728 81.5222C219.737 81.6041 219.729 81.6868 219.705 81.7656C219.682 81.8444 219.642 81.9176 219.59 81.981C219.453 82.1559 218.647 83.0059 216.176 82.8637L216.005 80.715C215.921 79.6228 215.462 78.5932 214.706 77.8006C215.198 77.557 215.741 77.4355 216.289 77.4464C216.837 77.4572 217.375 77.6002 217.856 77.863C218.338 78.1259 218.748 78.5009 219.054 78.9564C219.359 79.4118 219.551 79.9342 219.611 80.4793L219.728 81.5222ZM207.581 75.5052C207.352 75.7886 207.059 76.0127 206.725 76.1584C206.392 76.3042 206.028 76.3672 205.665 76.3423C205.302 76.319 204.951 76.2099 204.639 76.024C204.327 75.8381 204.064 75.5808 203.871 75.2732C203.678 74.9656 203.56 74.6165 203.529 74.2548C203.497 73.8931 203.552 73.529 203.689 73.1926C203.825 72.8562 204.04 72.5571 204.315 72.3199C204.59 72.0828 204.917 71.9143 205.27 71.8285C205.623 71.7427 205.991 71.742 206.344 71.8264C206.698 71.9108 207.026 72.078 207.302 72.314C207.197 72.6347 207.134 72.9673 207.113 73.3039C207.064 74.0667 207.226 74.8281 207.581 75.5052ZM218.91 74.8977C218.891 75.1981 218.812 75.4918 218.68 75.762C218.547 76.0322 218.362 76.2735 218.136 76.4723C217.91 76.671 217.647 76.8233 217.362 76.9203C217.077 77.0173 216.776 77.0571 216.476 77.0376C216.112 77.0158 215.76 76.9067 215.447 76.7194C215.135 76.5321 214.873 76.2723 214.683 75.962C215.121 75.3359 215.379 74.6015 215.429 73.8388C215.451 73.5023 215.431 73.1643 215.368 72.8328C215.724 72.5999 216.138 72.4707 216.564 72.4597C216.989 72.4488 217.409 72.5566 217.777 72.7709C218.145 72.9853 218.445 73.2978 218.646 73.6735C218.846 74.0491 218.937 74.473 218.91 74.8977Z" fill="white"/>
<path d="M211.071 76.6896C212.793 76.8004 214.279 75.494 214.39 73.7717C214.501 72.0493 213.194 70.5633 211.472 70.4525C209.75 70.3418 208.264 71.6482 208.153 73.3705C208.042 75.0928 209.349 76.5789 211.071 76.6896Z" fill="white"/>
</g>
<defs>
<filter id="filter0_d_828_27692" x="2.50195" y="-1.17578" width="273.041" height="287.279" filterUnits="userSpaceOnUse" color-interpolation-filters="sRGB">
<feFlood flood-opacity="0" result="BackgroundImageFix"/>
<feColorMatrix in="SourceAlpha" type="matrix" values="0 0 0 0 0 0 0 0 0 0 0 0 0 0 0 0 0 0 127 0" result="hardAlpha"/>
<feOffset dx="2" dy="8"/>
<feGaussianBlur stdDeviation="12"/>
<feComposite in2="hardAlpha" operator="out"/>
<feColorMatrix type="matrix" values="0 0 0 0 0 0 0 0 0 0 0 0 0 0 0 0 0 0 0.06 0"/>
<feBlend mode="normal" in2="BackgroundImageFix" result="effect1_dropShadow_828_27692"/>
<feBlend mode="normal" in="SourceGraphic" in2="effect1_dropShadow_828_27692" result="shape"/>
</filter>
<filter id="filter1_d_828_27692" x="0.0644531" y="66.3887" width="79.0664" height="71.9941" filterUnits="userSpaceOnUse" color-interpolation-filters="sRGB">
<feFlood flood-opacity="0" result="BackgroundImageFix"/>
<feColorMatrix in="SourceAlpha" type="matrix" values="0 0 0 0 0 0 0 0 0 0 0 0 0 0 0 0 0 0 127 0" result="hardAlpha"/>
<feOffset dx="2" dy="2"/>
<feGaussianBlur stdDeviation="8.5"/>
<feComposite in2="hardAlpha" operator="out"/>
<feColorMatrix type="matrix" values="0 0 0 0 0 0 0 0 0 0 0 0 0 0 0 0 0 0 0.11 0"/>
<feBlend mode="normal" in2="BackgroundImageFix" result="effect1_dropShadow_828_27692"/>
<feBlend mode="normal" in="SourceGraphic" in2="effect1_dropShadow_828_27692" result="shape"/>
</filter>
<filter id="filter2_d_828_27692" x="175.92" y="43.7285" width="73.0664" height="71.9961" filterUnits="userSpaceOnUse" color-interpolation-filters="sRGB">
<feFlood flood-opacity="0" result="BackgroundImageFix"/>
<feColorMatrix in="SourceAlpha" type="matrix" values="0 0 0 0 0 0 0 0 0 0 0 0 0 0 0 0 0 0 127 0" result="hardAlpha"/>
<feOffset dx="2" dy="2"/>
<feGaussianBlur stdDeviation="8.5"/>
<feComposite in2="hardAlpha" operator="out"/>
<feColorMatrix type="matrix" values="0 0 0 0 0 0 0 0 0 0 0 0 0 0 0 0 0 0 0.11 0"/>
<feBlend mode="normal" in2="BackgroundImageFix" result="effect1_dropShadow_828_27692"/>
<feBlend mode="normal" in="SourceGraphic" in2="effect1_dropShadow_828_27692" result="shape"/>
</filter>
<clipPath id="clip0_828_27692">
<rect width="101" height="23" fill="white" transform="translate(36.8359 68.3594) rotate(-14.77)"/>
</clipPath>
<clipPath id="clip1_828_27692">
<rect width="20" height="20" fill="white" transform="translate(19.0117 96.5957) rotate(-32.56)"/>
</clipPath>
<clipPath id="clip2_828_27692">
<rect width="100.495" height="18" fill="white" transform="translate(48.1113 111.037) rotate(-14.77)"/>
</clipPath>
<clipPath id="clip3_828_27692">
<rect width="70.495" height="16" fill="white" transform="translate(67.4551 184.4) rotate(-14.77)"/>
</clipPath>
<clipPath id="clip4_828_27692">
<rect width="76.7754" height="18" fill="white" transform="translate(136.324 127.012) rotate(-14.77)"/>
</clipPath>
<clipPath id="clip5_828_27692">
<rect width="77" height="25" fill="white" transform="translate(150.992 183.523) rotate(-14.77)"/>
</clipPath>
<clipPath id="clip6_828_27692">
<rect width="20" height="20" fill="white" transform="translate(201.666 67.1074) rotate(3.68)"/>
</clipPath>
</defs>
</svg>
