<svg width="265" height="296" viewBox="0 0 265 296" fill="none" xmlns="http://www.w3.org/2000/svg">
<g filter="url(#filter0_d_828_27805)">
<g clip-path="url(#clip0_828_27805)">
<path d="M22.5686 57.9424C21.7023 53.6099 24.5122 49.3954 28.8447 48.529L188.681 16.568C193.013 15.7017 197.228 18.5116 198.094 22.8441L237.982 222.326C238.849 226.658 236.039 230.873 231.706 231.739L71.8706 263.7C67.5381 264.566 63.3236 261.756 62.4572 257.424L22.5686 57.9424Z" fill="white"/>
<rect x="36.3262" y="63.3496" width="97.57" height="8" rx="4" transform="rotate(-11.3078 36.3262 63.3496)" fill="#DBDBDB"/>
<rect x="39.2676" y="78.0586" width="50" height="6" rx="3" transform="rotate(-11.3078 39.2676 78.0586)" fill="#DBDBDB"/>
<g clip-path="url(#clip1_828_27805)">
<g style="mix-blend-mode:luminosity">
<g opacity="0.6">
<path d="M47.1113 117.281L196.161 87.4771L197.929 96.3188C198.252 97.9344 197.204 99.5061 195.588 99.8292L49.4643 129.048L47.1113 117.281Z" fill="#DBDBDB"/>
</g>
<g opacity="0.6">
<path d="M50.6406 134.932L184.001 108.265L185.769 117.106C186.092 118.722 185.044 120.294 183.428 120.617L52.9936 146.699L50.6406 134.932Z" fill="#DBDBDB"/>
</g>
<g opacity="0.4">
<path d="M54.1699 152.582L173.802 128.66L175.57 137.502C175.893 139.118 174.845 140.689 173.229 141.012L56.5229 164.349L54.1699 152.582Z" fill="#DBDBDB"/>
</g>
<path d="M57.6992 170.232L164.583 148.86L166.351 157.701C166.674 159.317 165.627 160.889 164.011 161.212L60.0522 181.999L57.6992 170.232Z" fill="#F5F5F5"/>
<path d="M61.2285 187.883L152.404 169.651L154.172 178.493C154.495 180.109 153.447 181.68 151.832 182.003L63.5815 199.65L61.2285 187.883Z" fill="#F5F5F5"/>
<path d="M64.7578 205.533L129.605 192.566L131.373 201.408C131.696 203.024 130.648 204.595 129.032 204.918L67.1108 217.3L64.7578 205.533Z" fill="#F5F5F5"/>
<path d="M68.2871 223.186L117.532 213.339L119.3 222.18C119.623 223.796 118.575 225.367 116.959 225.691L70.6401 234.953L68.2871 223.186Z" fill="#F5F5F5"/>
</g>
</g>
<g filter="url(#filter1_d_828_27805)">
<rect x="105.326" y="160.711" width="58" height="58" rx="29" transform="rotate(-11.3078 105.326 160.711)" fill="white"/>
<path d="M156.771 178.863L141.488 181.919C140.884 182.04 140.298 181.649 140.178 181.045L137.107 165.689C136.986 165.086 137.377 164.5 137.98 164.379C147.01 162.574 155.839 168.523 157.644 177.553C157.765 178.156 157.374 178.742 156.771 178.863Z" fill="#FE9923"/>
<path d="M146.975 198.791L138.83 185.653L135.813 170.566C135.691 169.955 135.114 169.57 134.503 169.693C125.464 171.5 119.449 180.332 121.257 189.371C123.064 198.41 132.027 204.323 141.066 202.515C141.437 202.441 141.783 202.35 142.149 202.253C143.726 201.848 145.206 201.188 146.599 200.319C147.127 200.009 147.285 199.319 146.975 198.791Z" fill="#FD003A"/>
<path d="M150.603 199.596C150.449 199.627 150.289 199.625 150.133 199.588C149.99 199.555 149.856 199.494 149.737 199.409C149.618 199.324 149.517 199.217 149.439 199.093L141.197 185.782C141.102 185.629 141.045 185.456 141.032 185.276C141.019 185.097 141.049 184.917 141.12 184.752C141.192 184.587 141.302 184.441 141.442 184.328C141.582 184.215 141.748 184.137 141.924 184.102L157.207 181.046C157.811 180.925 158.397 181.316 158.517 181.919C159.873 188.7 156.85 195.787 150.974 199.449C150.86 199.52 150.735 199.57 150.603 199.596Z" fill="#1689FC"/>
<path d="M146.597 200.319C145.204 201.188 143.724 201.847 142.148 202.253L138.828 185.652L146.973 198.79C147.283 199.319 147.126 200.009 146.597 200.319Z" fill="#E50027"/>
</g>
<g filter="url(#filter2_d_828_27805)">
<path d="M47.8688 68.5508C42.5826 77.6178 45.6414 89.2338 54.7098 94.5206C62.001 98.7714 70.8693 97.6015 76.8043 92.3895L85.6227 92.0893C86.7689 92.0503 87.4832 90.8256 86.9524 89.8086L82.8691 81.9866C85.7223 68.298 73.167 56.1346 59.4369 59.7515C54.5319 61.0436 50.4236 64.1685 47.8688 68.5508Z" fill="#1689FC"/>
</g>
<path d="M59.9284 82.67L60.2108 84.0824L55.1499 85.0944L54.8675 83.682L59.9284 82.67ZM53.7955 75.4643L55.6991 84.9845L53.901 85.3441L51.9973 75.8238L53.7955 75.4643ZM58.4325 78.6239L58.7084 80.0035L54.3079 80.8835L54.032 79.5038L58.4325 78.6239ZM58.2875 74.566L58.5712 75.9849L53.5299 76.993L53.2462 75.5741L58.2875 74.566ZM59.556 74.3124L63.0149 73.6207C63.7386 73.476 64.3815 73.4608 64.9438 73.575C65.5061 73.6893 65.9695 73.9321 66.3339 74.3035C66.6983 74.6749 66.9428 75.1723 67.0675 75.7956C67.166 76.2882 67.1642 76.7328 67.0622 77.1295C66.9602 77.5262 66.7745 77.8784 66.5051 78.1861C66.24 78.493 65.9079 78.7589 65.5086 78.9838L65.0038 79.3839L61.9502 79.9945L61.6534 78.5782L63.9354 78.1219C64.3059 78.0478 64.6002 77.921 64.8181 77.7414C65.0361 77.5618 65.183 77.3443 65.2589 77.0889C65.3391 76.8326 65.3495 76.5562 65.2903 76.2598C65.2266 75.9416 65.1107 75.6792 64.9425 75.4725C64.7733 75.2615 64.5519 75.1177 64.2781 75.041C64.0044 74.9642 63.6779 74.9638 63.2987 75.0396L61.6378 75.3717L63.2578 83.4731L61.4597 83.8327L59.556 74.3124ZM66.8345 82.7579L63.7785 78.9353L65.6799 78.5483L68.745 82.2807L68.7634 82.3722L66.8345 82.7579ZM72.9404 77.9261L70.4884 78.4164L70.206 77.0041L72.658 76.5138C73.059 76.4336 73.3707 76.3032 73.593 76.1228C73.8188 75.9371 73.9674 75.717 74.0389 75.4624C74.1096 75.2035 74.1148 74.9236 74.0547 74.6229C73.9963 74.3308 73.8829 74.0701 73.7147 73.8408C73.5464 73.6115 73.3202 73.4437 73.036 73.3373C72.7562 73.2301 72.4157 73.2166 72.0147 73.2968L70.1512 73.6694L71.7711 81.7708L69.973 82.1303L68.0693 72.6101L71.731 71.8779C72.472 71.7297 73.1307 71.7362 73.7069 71.8976C74.2867 72.0536 74.7605 72.3374 75.1284 72.7489C75.4998 73.1552 75.7447 73.6548 75.8633 74.2476C75.9862 74.8622 75.9526 75.4198 75.7625 75.9202C75.5768 76.4197 75.2442 76.8421 74.7647 77.1873C74.2895 77.5317 73.6814 77.7779 72.9404 77.9261Z" fill="white"/>
</g>
</g>
<defs>
<filter id="filter0_d_828_27805" x="-1" y="-1" width="266.551" height="298.27" filterUnits="userSpaceOnUse" color-interpolation-filters="sRGB">
<feFlood flood-opacity="0" result="BackgroundImageFix"/>
<feColorMatrix in="SourceAlpha" type="matrix" values="0 0 0 0 0 0 0 0 0 0 0 0 0 0 0 0 0 0 127 0" result="hardAlpha"/>
<feOffset dx="2" dy="8"/>
<feGaussianBlur stdDeviation="12"/>
<feComposite in2="hardAlpha" operator="out"/>
<feColorMatrix type="matrix" values="0 0 0 0 0 0 0 0 0 0 0 0 0 0 0 0 0 0 0.06 0"/>
<feBlend mode="normal" in2="BackgroundImageFix" result="effect1_dropShadow_828_27805"/>
<feBlend mode="normal" in="SourceGraphic" in2="effect1_dropShadow_828_27805" result="shape"/>
</filter>
<filter id="filter1_d_828_27805" x="101.326" y="149.338" width="76.2461" height="76.248" filterUnits="userSpaceOnUse" color-interpolation-filters="sRGB">
<feFlood flood-opacity="0" result="BackgroundImageFix"/>
<feColorMatrix in="SourceAlpha" type="matrix" values="0 0 0 0 0 0 0 0 0 0 0 0 0 0 0 0 0 0 127 0" result="hardAlpha"/>
<feOffset dy="4"/>
<feGaussianBlur stdDeviation="2"/>
<feComposite in2="hardAlpha" operator="out"/>
<feColorMatrix type="matrix" values="0 0 0 0 0 0 0 0 0 0 0 0 0 0 0 0 0 0 0.05 0"/>
<feBlend mode="normal" in2="BackgroundImageFix" result="effect1_dropShadow_828_27805"/>
<feBlend mode="normal" in="SourceGraphic" in2="effect1_dropShadow_828_27805" result="shape"/>
</filter>
<filter id="filter2_d_828_27805" x="30.2773" y="44.1055" width="75.8535" height="72.0059" filterUnits="userSpaceOnUse" color-interpolation-filters="sRGB">
<feFlood flood-opacity="0" result="BackgroundImageFix"/>
<feColorMatrix in="SourceAlpha" type="matrix" values="0 0 0 0 0 0 0 0 0 0 0 0 0 0 0 0 0 0 127 0" result="hardAlpha"/>
<feOffset dx="2" dy="2"/>
<feGaussianBlur stdDeviation="8.5"/>
<feComposite in2="hardAlpha" operator="out"/>
<feColorMatrix type="matrix" values="0 0 0 0 0 0 0 0 0 0 0 0 0 0 0 0 0 0 0.11 0"/>
<feBlend mode="normal" in2="BackgroundImageFix" result="effect1_dropShadow_828_27805"/>
<feBlend mode="normal" in="SourceGraphic" in2="effect1_dropShadow_828_27805" result="shape"/>
</filter>
<clipPath id="clip0_828_27805">
<path d="M22.5686 57.9424C21.7023 53.6099 24.5122 49.3954 28.8447 48.529L188.681 16.568C193.013 15.7017 197.228 18.5116 198.094 22.8441L237.982 222.326C238.849 226.658 236.039 230.873 231.706 231.739L71.8706 263.7C67.5381 264.566 63.3236 261.756 62.4572 257.424L22.5686 57.9424Z" fill="white"/>
</clipPath>
<clipPath id="clip1_828_27805">
<rect width="179" height="132.431" fill="white" transform="translate(34.9219 119.719) rotate(-11.3078)"/>
</clipPath>
</defs>
</svg>
