<svg width="267" height="269" viewBox="0 0 267 269" fill="none" xmlns="http://www.w3.org/2000/svg">
<g filter="url(#filter0_d_828_27739)">
<path d="M68.2963 22.2393C69.5058 17.9898 73.9312 15.5254 78.1807 16.7349L235.114 61.4015C239.364 62.611 241.828 67.0364 240.618 71.2859L195.176 230.945C193.967 235.194 189.541 237.659 185.292 236.449L28.3584 191.783C24.1089 190.573 21.6445 186.148 22.854 181.898L68.2963 22.2393Z" fill="white"/>
</g>
<g clip-path="url(#clip0_828_27739)">
<path d="M88.1011 47.6314C86.9597 47.3065 85.9403 46.6505 85.1718 45.7463C84.4033 44.8421 83.9201 43.7303 83.7835 42.5515C83.6468 41.3727 83.8628 40.1799 84.4041 39.1238C84.9453 38.0678 85.7876 37.1959 86.8244 36.6186C87.8612 36.0412 89.0459 35.7843 90.2287 35.8802C91.4115 35.9762 92.5392 36.4207 93.4694 37.1576C94.3996 37.8945 95.0903 38.8907 95.4543 40.0202C95.8183 41.1497 95.8392 42.3617 95.5144 43.5031C95.0787 45.0336 94.053 46.3284 92.6627 47.1026C91.2724 47.8768 89.6316 48.067 88.1011 47.6314ZM90.8385 38.0134C90.0776 37.7968 89.2696 37.8107 88.5166 38.0534C87.7636 38.2961 87.0995 38.7566 86.6082 39.3767C86.117 39.9968 85.8206 40.7486 85.7566 41.5372C85.6927 42.3257 85.864 43.1155 86.2489 43.8067C86.6338 44.4979 87.215 45.0594 87.919 45.4202C88.6231 45.7811 89.4183 45.9251 90.2042 45.834C90.99 45.7429 91.7312 45.4208 92.334 44.9084C92.9368 44.3961 93.3742 43.7165 93.5908 42.9556C93.8812 41.9352 93.7544 40.8413 93.2382 39.9145C92.7221 38.9876 91.8589 38.3038 90.8385 38.0134Z" fill="#1FC16B"/>
<path d="M84.27 61.0952C82.1375 60.4867 80.1665 59.413 78.4989 57.9514C76.8312 56.4897 75.5084 54.6765 74.6256 52.6422L74.3006 51.8843L74.9732 51.4207C76.7955 50.1586 78.8747 49.3161 81.0615 48.9537C83.2483 48.5913 85.4882 48.7181 87.6201 49.3249C89.752 49.9317 91.7229 51.0034 93.3911 52.463C95.0593 53.9226 96.3833 55.7337 97.2678 57.7662L97.5955 58.5145L96.9201 58.9877C95.0985 60.2522 93.0191 61.0971 90.8316 61.4615C88.6442 61.826 86.4032 61.7008 84.27 61.0952ZM76.8178 52.6111C77.6312 54.1963 78.7617 55.5975 80.1392 56.7275C81.5167 57.8575 83.1118 58.6923 84.8255 59.18C86.5391 59.6677 88.3347 59.798 90.1009 59.5628C91.867 59.3275 93.5658 58.7317 95.0921 57.8123C94.2787 56.2271 93.1482 54.826 91.7707 53.696C90.3931 52.566 88.798 51.7312 87.0844 51.2435C85.3707 50.7557 83.5751 50.6254 81.809 50.8607C80.0429 51.096 78.344 51.6918 76.8178 52.6111Z" fill="#1FC16B"/>
<path d="M84.2691 61.0958C80.9914 60.1653 78.1281 58.1465 76.1506 55.3719C74.1731 52.5972 73.1991 49.2319 73.389 45.83C73.579 42.428 74.9214 39.1921 77.1955 36.6548C79.4696 34.1175 82.5397 32.43 85.9007 31.87C89.2616 31.3101 92.713 31.9111 95.6869 33.5741C98.6607 35.2371 100.98 37.863 102.262 41.0196C103.545 44.1763 103.715 47.6755 102.744 50.9415C101.772 54.2074 99.7183 57.0454 96.9193 58.9883C95.0976 60.2528 93.0182 61.0977 90.8308 61.4621C88.6434 61.8266 86.4024 61.7015 84.2691 61.0958ZM91.9341 34.1654C89.4611 33.4616 86.835 33.5068 84.3878 34.2955C81.9406 35.0841 79.7822 36.5808 78.1856 38.5961C76.5889 40.6115 75.6258 43.055 75.4179 45.6178C75.21 48.1805 75.7667 50.7473 77.0177 52.9937C78.2686 55.24 80.1576 57.0649 82.4457 58.2377C84.7338 59.4105 87.3183 59.8784 89.8723 59.5823C92.4264 59.2863 94.8353 58.2395 96.7944 56.5743C98.7535 54.9092 100.175 52.7005 100.879 50.2276C101.823 46.9114 101.41 43.3562 99.733 40.344C98.0555 37.3317 95.2502 35.1092 91.9341 34.1654Z" fill="#1FC16B"/>
<path d="M75.5384 52.2482C75.5384 52.2482 82.1441 65.8251 94.7756 58.888L96.3518 58.1721C96.3518 58.1721 90.5497 47.288 80.7325 50.0355L75.5384 52.2482Z" fill="#1FC16B"/>
<path d="M88.3762 46.6684C91.0321 47.4243 93.798 45.8841 94.554 43.2281C95.3099 40.5722 93.7696 37.8063 91.1137 37.0504C88.4578 36.2944 85.6919 37.8347 84.9359 40.4906C84.18 43.1466 85.7203 45.9125 88.3762 46.6684Z" fill="#1FC16B"/>
</g>
<rect x="113.502" y="46.0625" width="70" height="6" rx="3" transform="rotate(15.8875 113.502 46.0625)" fill="#DBDBDB"/>
<rect x="59.4258" y="89.9355" width="159" height="38" rx="4" transform="rotate(15.8875 59.4258 89.9355)" fill="white"/>
<circle cx="185.855" cy="146.193" r="10" transform="rotate(15.8875 185.855 146.193)" fill="#DBDBDB"/>
<rect x="110.49" y="56.6426" width="50" height="6" rx="3" transform="rotate(15.8875 110.49 56.6426)" fill="#DBDBDB"/>
<g clip-path="url(#clip1_828_27739)">
<path d="M91.1596 99.8648L96.8344 79.9267C96.9252 79.6078 96.8856 79.266 96.7243 78.9763C96.563 78.6867 96.2932 78.473 95.9744 78.3822L76.0362 72.7074C75.7174 72.6167 75.3755 72.6563 75.0859 72.8176C74.7963 72.9789 74.5826 73.2486 74.4918 73.5675L68.817 93.5056C68.7262 93.8245 68.7659 94.1663 68.9271 94.456C69.0884 94.7456 69.3582 94.9593 69.677 95.0501L89.6152 100.725C89.934 100.816 90.2759 100.776 90.5655 100.615C90.8552 100.453 91.0689 100.184 91.1596 99.8648ZM89.0973 97.9782L71.5637 92.9877L76.5541 75.4541L94.0877 80.4446L89.0973 97.9782Z" fill="#B0B0B0"/>
<path d="M78.2318 78.5057L91.0551 82.1554L87.4193 94.9293L74.5961 91.2796L78.2318 78.5057ZM142.862 91.7283L122.924 86.0534C122.605 85.9627 122.263 86.0023 121.974 86.1636C121.684 86.3249 121.47 86.5946 121.38 86.9135L115.705 106.852C115.614 107.17 115.654 107.512 115.815 107.802C115.976 108.092 116.246 108.305 116.565 108.396L136.503 114.071C136.822 114.162 137.164 114.122 137.453 113.961C137.743 113.799 137.957 113.53 138.047 113.211L143.722 93.2727C143.813 92.9538 143.773 92.612 143.612 92.3224C143.451 92.0327 143.181 91.819 142.862 91.7283ZM135.985 111.324L118.452 106.334L123.442 88.8001L140.976 93.7906L135.985 111.324Z" fill="#B0B0B0"/>
<path d="M125.119 91.8508L137.942 95.5006L134.307 108.274L121.483 104.625L125.119 91.8508ZM129.174 139.818L109.236 134.143C108.917 134.053 108.575 134.092 108.286 134.254C107.996 134.415 107.782 134.685 107.692 135.003L102.017 154.942C101.926 155.26 101.966 155.602 102.127 155.892C102.288 156.182 102.558 156.395 102.877 156.486L122.815 162.161C123.134 162.252 123.476 162.212 123.765 162.051C124.055 161.889 124.269 161.62 124.359 161.301L130.034 141.363C130.125 141.044 130.085 140.702 129.924 140.412C129.763 140.123 129.493 139.909 129.174 139.818ZM122.297 159.414L104.764 154.424L109.754 136.89L127.288 141.881L122.297 159.414Z" fill="#B0B0B0"/>
<path d="M111.432 139.94L124.255 143.59L120.619 156.363L107.796 152.714L111.432 139.94ZM80.0075 115.156L83.8297 101.726L74.5363 99.0813L72.9109 104.792L78.0205 106.246L75.8236 113.965L80.0075 115.156ZM113.568 133.508L119.279 135.133L120.733 130.023L128.452 132.22L129.643 128.035L116.214 124.213L113.568 133.508ZM100.732 96.4689L104.916 97.6597L108.738 84.2317L99.4444 81.5866L97.819 87.2973L102.929 88.7516L100.732 96.4689ZM102.394 113.261L94.7834 111.095L96.6278 104.615L88.9153 102.42L87.0692 108.906L94.7817 111.101L92.9356 117.588L100.75 119.812L102.598 113.32L110.208 115.486L112.053 109.005L104.238 106.781L102.394 113.261ZM118.052 117.718L125.662 119.884L127.506 113.404L119.692 111.18L117.847 117.66L110.237 115.494L108.389 121.986L116.204 124.21L118.052 117.718ZM83.2766 121.843L75.6663 119.677L73.8185 126.17L81.5309 128.365L79.885 134.148L87.4953 136.314L89.1412 130.531L81.6331 128.394L83.4809 121.902L91.0912 124.068L92.9356 117.588L85.1209 115.363L83.2766 121.843ZM98.2737 98.8324L105.884 100.998L104.238 106.781L96.6278 104.615L98.2737 98.8324ZM112.1 86.0321L118.111 87.743L114.261 101.268L108.25 99.5574L112.1 86.0321ZM69.3495 112.122L75.3608 113.833L71.5112 127.358L65.4999 125.647L69.3495 112.122Z" fill="#B0B0B0"/>
<path d="M91.0394 124.067L89.195 130.547L97.0577 132.785L95.6958 137.57L103.306 139.736L108.36 121.979L100.75 119.813L98.9021 126.305L91.0394 124.067ZM78.0404 140.628L79.8847 134.148L72.1723 131.953L70.3262 138.439L78.0386 140.634L76.1925 147.121L84.0072 149.345L85.855 142.853L93.4652 145.019L95.3096 138.539L87.495 136.314L85.6506 142.795L78.0404 140.628ZM62.4935 136.21L70.1038 138.376L68.4579 144.159L60.8476 141.993L62.4935 136.21Z" fill="#B0B0B0"/>
<path d="M93.3613 144.996L100.972 147.162L99.3257 152.945L91.7154 150.779L93.3613 144.996Z" fill="#B0B0B0"/>
</g>
<g clip-path="url(#clip2_828_27739)">
<g filter="url(#filter1_d_828_27739)">
<rect x="160.592" y="158.238" width="99" height="32" rx="4" transform="rotate(15.8875 160.592 158.238)" fill="#FE9923" shape-rendering="crispEdges"/>
<path d="M170.599 182.589C170.091 182.445 169.625 182.227 169.198 181.936C168.773 181.64 168.425 181.294 168.155 180.897C167.889 180.501 167.74 180.078 167.708 179.627L168.878 179.531C168.896 179.808 169 180.075 169.189 180.332C169.383 180.587 169.632 180.813 169.935 181.01C170.237 181.208 170.566 181.357 170.921 181.458C171.324 181.573 171.718 181.615 172.1 181.583C172.489 181.548 172.825 181.442 173.108 181.266C173.391 181.089 173.578 180.842 173.669 180.523C173.762 180.195 173.726 179.896 173.56 179.626C173.396 179.351 173.156 179.103 172.84 178.882C172.526 178.657 172.187 178.456 171.825 178.281C171.205 177.988 170.665 177.669 170.205 177.325C169.751 176.977 169.424 176.581 169.226 176.136C169.032 175.693 169.018 175.177 169.186 174.589C169.342 174.041 169.635 173.608 170.065 173.289C170.5 172.971 171.01 172.774 171.594 172.698C172.179 172.622 172.772 172.669 173.373 172.841C173.872 172.982 174.332 173.198 174.754 173.488C175.182 173.775 175.533 174.118 175.808 174.516C176.082 174.914 176.238 175.349 176.273 175.82L175.092 175.906C175.075 175.625 174.969 175.357 174.775 175.103C174.586 174.845 174.34 174.62 174.035 174.426C173.737 174.23 173.409 174.081 173.049 173.978C172.651 173.86 172.26 173.819 171.876 173.856C171.492 173.892 171.159 173.998 170.876 174.175C170.593 174.351 170.406 174.597 170.317 174.911C170.21 175.288 170.226 175.606 170.366 175.864C170.512 176.119 170.743 176.345 171.061 176.542C171.378 176.739 171.742 176.937 172.151 177.136C172.732 177.413 173.251 177.738 173.707 178.11C174.166 178.479 174.499 178.891 174.709 179.349C174.923 179.808 174.953 180.306 174.8 180.845C174.644 181.392 174.348 181.825 173.913 182.143C173.483 182.462 172.976 182.659 172.391 182.736C171.807 182.812 171.209 182.763 170.599 182.589ZM180.627 183.333L181.481 184.166C181.055 184.505 180.569 184.736 180.025 184.858C179.486 184.981 178.942 184.964 178.395 184.808C177.775 184.632 177.255 184.312 176.834 183.847C176.417 183.384 176.133 182.842 175.979 182.221C175.832 181.597 175.851 180.96 176.036 180.309C176.177 179.815 176.395 179.38 176.692 179.003C176.989 178.622 177.337 178.314 177.734 178.077C178.137 177.838 178.569 177.684 179.03 177.616C179.49 177.549 179.952 177.581 180.414 177.712C180.962 177.868 181.433 178.14 181.827 178.529C182.225 178.919 182.516 179.373 182.698 179.891L181.533 180.149C181.393 179.822 181.195 179.545 180.94 179.317C180.685 179.089 180.402 178.931 180.092 178.843C179.675 178.724 179.264 178.729 178.859 178.856C178.459 178.98 178.109 179.198 177.807 179.51C177.504 179.822 177.291 180.195 177.167 180.631C177.043 181.066 177.028 181.496 177.12 181.92C177.219 182.341 177.405 182.71 177.679 183.025C177.958 183.342 178.304 183.56 178.716 183.677C179.049 183.772 179.382 183.784 179.717 183.715C180.053 183.645 180.356 183.518 180.627 183.333ZM189.557 180.518L190.688 180.84L188.772 187.573L187.641 187.251L187.918 186.1C187.595 186.43 187.214 186.663 186.772 186.8C186.335 186.937 185.861 186.933 185.349 186.788C184.855 186.647 184.419 186.424 184.041 186.117C183.663 185.806 183.355 185.439 183.116 185.017C182.883 184.592 182.736 184.137 182.675 183.654C182.613 183.171 182.654 182.68 182.795 182.182C182.932 181.701 183.151 181.274 183.452 180.898C183.753 180.523 184.108 180.221 184.517 179.993C184.932 179.762 185.376 179.617 185.849 179.558C186.324 179.494 186.803 179.531 187.288 179.669C187.818 179.819 188.246 180.077 188.574 180.442C188.903 180.803 189.135 181.216 189.27 181.681L189.557 180.518ZM185.641 185.685C186.086 185.811 186.5 185.813 186.884 185.689C187.275 185.562 187.61 185.338 187.891 185.015C188.177 184.694 188.384 184.308 188.511 183.86C188.642 183.402 188.669 182.963 188.595 182.544C188.521 182.12 188.351 181.754 188.085 181.446C187.824 181.134 187.474 180.915 187.034 180.79C186.59 180.663 186.155 180.658 185.729 180.775C185.302 180.891 184.929 181.105 184.607 181.416C184.291 181.724 184.069 182.105 183.94 182.558C183.811 183.012 183.803 183.456 183.917 183.891C184.032 184.322 184.241 184.699 184.541 185.022C184.844 185.341 185.21 185.562 185.641 185.685ZM197.261 185.462L196.069 189.65L194.938 189.328L196.059 185.389C196.156 185.048 196.161 184.715 196.074 184.389C195.988 184.064 195.828 183.78 195.596 183.54C195.365 183.294 195.079 183.123 194.738 183.026C194.401 182.93 194.068 182.925 193.738 183.011C193.413 183.093 193.128 183.25 192.883 183.481C192.638 183.712 192.467 183.998 192.37 184.339L191.249 188.278L190.118 187.956L192.034 181.223L193.165 181.545L192.925 182.387C193.253 182.14 193.624 181.977 194.04 181.896C194.457 181.811 194.879 181.829 195.306 181.951C195.808 182.094 196.231 182.347 196.574 182.712C196.922 183.073 197.159 183.495 197.284 183.976C197.413 184.46 197.405 184.955 197.261 185.462ZM205.732 186.345L204.204 185.91L202.603 191.509L201.472 191.187L203.073 185.588L201.915 185.258L202.237 184.127L203.395 184.457L203.99 182.341L205.121 182.663L204.526 184.779L206.054 185.214L205.732 186.345ZM208.086 193.259C207.467 193.083 206.947 192.763 206.526 192.298C206.109 191.835 205.825 191.293 205.671 190.672C205.524 190.048 205.543 189.411 205.728 188.76C205.869 188.266 206.087 187.831 206.383 187.454C206.681 187.073 207.029 186.765 207.426 186.528C207.829 186.289 208.261 186.135 208.721 186.067C209.182 186 209.644 186.032 210.106 186.163C210.726 186.339 211.243 186.659 211.66 187.122C212.081 187.586 212.365 188.131 212.513 188.755C212.664 189.38 212.647 190.021 212.461 190.676C212.321 191.165 212.104 191.598 211.807 191.975C211.511 192.351 211.161 192.659 210.758 192.899C210.361 193.135 209.932 193.287 209.471 193.355C209.015 193.424 208.553 193.392 208.086 193.259ZM208.408 192.128C208.83 192.248 209.241 192.246 209.64 192.122C210.045 191.995 210.396 191.777 210.692 191.468C210.994 191.156 211.207 190.785 211.33 190.354C211.455 189.914 211.469 189.482 211.372 189.056C211.279 188.632 211.095 188.262 210.821 187.946C210.547 187.63 210.202 187.413 209.784 187.294C209.362 187.174 208.951 187.178 208.551 187.307C208.151 187.431 207.801 187.649 207.498 187.961C207.196 188.273 206.983 188.646 206.859 189.082C206.731 189.531 206.716 189.968 206.813 190.393C206.912 190.814 207.101 191.181 207.381 191.494C207.662 191.802 208.004 192.013 208.408 192.128ZM216.116 198.995L214.985 198.673L217.86 188.574L218.991 188.896L218.663 190.047C219.004 189.717 219.4 189.485 219.851 189.351C220.303 189.213 220.791 189.219 221.316 189.368C221.805 189.508 222.237 189.73 222.611 190.035C222.99 190.342 223.294 190.705 223.524 191.125C223.755 191.54 223.902 191.987 223.964 192.466C224.027 192.944 223.989 193.428 223.85 193.918C223.71 194.407 223.487 194.841 223.181 195.219C222.874 195.598 222.513 195.905 222.096 196.14C221.681 196.372 221.232 196.518 220.748 196.579C220.27 196.642 219.786 196.604 219.296 196.464C218.771 196.315 218.352 196.065 218.04 195.714C217.729 195.358 217.515 194.951 217.398 194.49L216.116 198.995ZM220.99 190.462C220.555 190.338 220.142 190.339 219.752 190.466C219.362 190.593 219.024 190.814 218.74 191.131C218.46 191.45 218.256 191.835 218.127 192.289C217.999 192.738 217.97 193.173 218.039 193.596C218.112 194.019 218.279 194.387 218.54 194.699C218.805 195.012 219.157 195.231 219.597 195.356C220.033 195.48 220.463 195.486 220.888 195.374C221.314 195.258 221.689 195.047 222.014 194.742C222.34 194.432 222.568 194.048 222.698 193.59C222.826 193.141 222.835 192.702 222.724 192.273C222.614 191.839 222.409 191.46 222.108 191.137C221.807 190.813 221.435 190.588 220.99 190.462ZM231.307 192.401L232.438 192.723L230.522 199.456L229.391 199.134L229.668 197.983C229.345 198.313 228.964 198.546 228.522 198.683C228.085 198.82 227.611 198.816 227.099 198.671C226.605 198.53 226.169 198.307 225.791 198C225.413 197.689 225.105 197.322 224.867 196.9C224.633 196.474 224.486 196.02 224.425 195.537C224.363 195.054 224.404 194.563 224.545 194.065C224.682 193.584 224.901 193.157 225.202 192.781C225.503 192.406 225.858 192.104 226.267 191.876C226.682 191.645 227.126 191.5 227.599 191.44C228.074 191.377 228.553 191.414 229.038 191.552C229.568 191.702 229.996 191.96 230.324 192.325C230.654 192.686 230.885 193.099 231.02 193.564L231.307 192.401ZM227.391 197.568C227.836 197.694 228.25 197.695 228.634 197.572C229.025 197.445 229.36 197.221 229.641 196.898C229.927 196.577 230.134 196.191 230.261 195.743C230.392 195.285 230.42 194.846 230.345 194.427C230.271 194.003 230.101 193.637 229.835 193.329C229.574 193.017 229.224 192.798 228.784 192.673C228.34 192.546 227.905 192.541 227.479 192.658C227.052 192.774 226.679 192.988 226.357 193.299C226.041 193.607 225.819 193.988 225.69 194.441C225.561 194.895 225.553 195.339 225.667 195.774C225.782 196.205 225.991 196.582 226.292 196.905C226.594 197.224 226.96 197.445 227.391 197.568ZM238.185 194.359L239.384 194.7L232.827 203.751L231.628 203.41L233.805 200.39L233.304 192.97L234.543 193.322L234.813 198.996L238.185 194.359Z" fill="white"/>
</g>
</g>
<rect x="42.137" y="152.506" width="79" height="26" rx="3.5" transform="rotate(15.8875 42.137 152.506)" fill="white"/>
<rect x="42.137" y="152.506" width="79" height="26" rx="3.5" transform="rotate(15.8875 42.137 152.506)" stroke="#DBDBDB"/>
<rect x="53.0723" y="167.055" width="50" height="4" rx="2" transform="rotate(15.8875 53.0723 167.055)" fill="#DBDBDB"/>
<rect x="53.4023" y="167.146" width="25.0523" height="4" rx="2" transform="rotate(15.8875 53.4023 167.146)" fill="#004BEC"/>
<defs>
<filter id="filter0_d_828_27739" x="0.546875" y="0.427734" width="266.379" height="268.33" filterUnits="userSpaceOnUse" color-interpolation-filters="sRGB">
<feFlood flood-opacity="0" result="BackgroundImageFix"/>
<feColorMatrix in="SourceAlpha" type="matrix" values="0 0 0 0 0 0 0 0 0 0 0 0 0 0 0 0 0 0 127 0" result="hardAlpha"/>
<feOffset dx="2" dy="8"/>
<feGaussianBlur stdDeviation="12"/>
<feComposite in2="hardAlpha" operator="out"/>
<feColorMatrix type="matrix" values="0 0 0 0 0 0 0 0 0 0 0 0 0 0 0 0 0 0 0.06 0"/>
<feBlend mode="normal" in2="BackgroundImageFix" result="effect1_dropShadow_828_27739"/>
<feBlend mode="normal" in="SourceGraphic" in2="effect1_dropShadow_828_27739" result="shape"/>
</filter>
<filter id="filter1_d_828_27739" x="136.832" y="143.238" width="137.979" height="91.8789" filterUnits="userSpaceOnUse" color-interpolation-filters="sRGB">
<feFlood flood-opacity="0" result="BackgroundImageFix"/>
<feColorMatrix in="SourceAlpha" type="matrix" values="0 0 0 0 0 0 0 0 0 0 0 0 0 0 0 0 0 0 127 0" result="hardAlpha"/>
<feOffset dx="2" dy="2"/>
<feGaussianBlur stdDeviation="8.5"/>
<feComposite in2="hardAlpha" operator="out"/>
<feColorMatrix type="matrix" values="0 0 0 0 0 0 0 0 0 0 0 0 0 0 0 0 0 0 0.11 0"/>
<feBlend mode="normal" in2="BackgroundImageFix" result="effect1_dropShadow_828_27739"/>
<feBlend mode="normal" in="SourceGraphic" in2="effect1_dropShadow_828_27739" result="shape"/>
</filter>
<clipPath id="clip0_828_27739">
<rect width="32" height="32" fill="white" transform="translate(77.3672 26.9004) rotate(15.8875)"/>
</clipPath>
<clipPath id="clip1_828_27739">
<rect width="80" height="80" fill="white" transform="translate(71.9043 68.0117) rotate(15.8875)"/>
</clipPath>
<clipPath id="clip2_828_27739">
<rect width="101" height="33" fill="white" transform="translate(159.768 157.482) rotate(15.8875)"/>
</clipPath>
</defs>
</svg>
